<?xml version="1.0" encoding="iso-8859-1"?>
<!-- Generator: Adobe Illustrator 18.0.0, SVG Export Plug-In . SVG Version: 6.00 Build 0)  -->
<!DOCTYPE svg PUBLIC "-//W3C//DTD SVG 1.1//EN" "http://www.w3.org/Graphics/SVG/1.1/DTD/svg11.dtd">
<svg version="1.1" id="Capa_1" xmlns="http://www.w3.org/2000/svg" xmlns:xlink="http://www.w3.org/1999/xlink" x="0px" y="0px"
	 viewBox="0 0 460 460" style="enable-background:new 0 0 460 460;" xml:space="preserve">
<g id="XMLID_1479_">
	<g id="XMLID_1015_">
		<path id="XMLID_2462_" style="fill:#8FA6B4;" d="M379.767,408.334c0,28.534-23.132,51.666-51.666,51.666H131.899
			c-28.534,0-51.666-23.132-51.666-51.666H379.767z"/>
	</g>
	<g id="XMLID_1014_">
		<path id="XMLID_2461_" style="fill:#8FA6B4;" d="M80.233,51.666C80.233,23.132,103.364,0,131.899,0h196.203
			c28.534,0,51.666,23.132,51.666,51.666H80.233z"/>
	</g>
	<g id="XMLID_1013_">
		<rect id="XMLID_2460_" x="80.233" y="51.666" style="fill:#345065;" width="299.535" height="356.668"/>
	</g>
	<g id="XMLID_1987_">
		<rect id="XMLID_1989_" x="80.233" y="51.666" style="fill:#5D7486;" width="278.734" height="356.668"/>
	</g>
	<g id="XMLID_1012_">
		<path id="XMLID_3009_" style="fill:#405A66;" d="M251.395,435.41h-42.79c-4.308,0-7.8-3.492-7.8-7.8c0-4.308,3.492-7.8,7.8-7.8
			h42.79c4.308,0,7.8,3.492,7.8,7.8C259.196,431.918,255.703,435.41,251.395,435.41z"/>
	</g>
	<g id="XMLID_1120_">
		<path id="XMLID_2459_" style="fill:#86C867;" d="M293.503,276.387L230,312.107l-63.503-35.72
			c-13.558-7.626-21.948-21.972-21.948-37.528v-97.64L230,114.51l85.451,26.71v97.64
			C315.451,254.415,307.06,268.761,293.503,276.387z"/>
	</g>
	<g id="XMLID_1119_">
		<path id="XMLID_2458_" style="fill:#6AAC4B;" d="M230,279.689l-42.666-24c-9.109-5.124-14.746-14.763-14.746-25.214v-65.602
			L230,146.928V279.689z"/>
	</g>
</g>
<g>
</g>
<g>
</g>
<g>
</g>
<g>
</g>
<g>
</g>
<g>
</g>
<g>
</g>
<g>
</g>
<g>
</g>
<g>
</g>
<g>
</g>
<g>
</g>
<g>
</g>
<g>
</g>
<g>
</g>
</svg>
